<?xml version="1.0" ?><svg viewBox="0 0 24 24" xmlns="http://www.w3.org/2000/svg"><defs><style>.cls-1{fill:#cf1f25;}.cls-2{fill:#fff;}.cls-3{fill:none;}</style></defs><title/><g data-name="Layer 2" id="Layer_2"><g data-name="Layer 1" id="Layer_1-2"><circle class="cls-1" cx="12.0265" cy="12.012" r="11"/><path class="cls-2" d="M17.7968,7.7189c-.3735-.2687-1.4137-.6257-5.7728-.6257-4.6714,0-5.3646.41-5.5869.5442-1.1838.7111-1.2961,3.8594-1.3066,4.4977.0144.8433.1506,3.6486,1.3058,4.3423.222.1337.9112.5412,5.5879.5412,4.3621,0,5.4012-.3553,5.7729-.6227,1.0089-.7258,1.1249-3.2254,1.1279-4.2717C18.9222,11.2827,18.834,8.4656,17.7968,7.7189Zm-3.5124,4.6434L11.2694,14.47a.3637.3637,0,0,1-.576-.2826V9.973a.364.364,0,0,1,.576-.2829l3.015,2.1069A.3421.3421,0,0,1,14.2844,12.3623Z"/><rect class="cls-3" height="24" width="24"/></g></g></svg>