<?xml version="1.0" ?><svg viewBox="0 0 24 24" xmlns="http://www.w3.org/2000/svg"><defs><style>.cls-1{fill:#27aae1;}.cls-2{fill:#fff;}.cls-3{fill:none;}</style></defs><title/><g data-name="Layer 2" id="Layer_2"><g data-name="Layer 1" id="Layer_1-2"><circle class="cls-1" cx="12.0121" cy="12.012" r="11"/><path class="cls-2" d="M18.8364,8.1245a5.2411,5.2411,0,0,1-1.5058.4128,2.6294,2.6294,0,0,0,1.1528-1.4505,5.2493,5.2493,0,0,1-1.6649.6362,2.6243,2.6243,0,0,0-4.4677,2.3913A7.4433,7.4433,0,0,1,6.9468,7.375a2.6247,2.6247,0,0,0,.8114,3.5,2.6112,2.6112,0,0,1-1.1875-.3279l0,.033a2.6234,2.6234,0,0,0,2.1032,2.5708,2.6284,2.6284,0,0,1-1.184.0449,2.6245,2.6245,0,0,0,2.4492,1.8208,5.2607,5.2607,0,0,1-3.2561,1.1223,5.337,5.337,0,0,1-.6254-.0366A7.4564,7.4564,0,0,0,17.5358,9.8208q0-.1705-.0076-.3392A5.3284,5.3284,0,0,0,18.8364,8.1245Z"/><rect class="cls-3" height="24" width="24"/></g></g></svg>