<?xml version="1.0" ?><!DOCTYPE svg  PUBLIC '-//W3C//DTD SVG 1.1//EN'  'http://www.w3.org/Graphics/SVG/1.1/DTD/svg11.dtd'><svg enable-background="new 0 0 128 128" id="Layer_1" version="1.1" viewBox="0 0 128 128" xml:space="preserve" xmlns="http://www.w3.org/2000/svg" xmlns:xlink="http://www.w3.org/1999/xlink"><path d="M66.2,30.7V19c0-1.1-0.9-2-2-2s-2,0.9-2,2v11.7c-1.6,0.8-2.8,2.4-2.8,4.3c0,2.6,2.1,4.8,4.8,4.8  S69,37.6,69,35C69,33.1,67.9,31.4,66.2,30.7z" fill="#2C3E50"/><path d="M96.2,30.7V19c0-1.1-0.9-2-2-2s-2,0.9-2,2v11.7c-1.6,0.8-2.8,2.4-2.8,4.3c0,2.6,2.1,4.8,4.8,4.8  S99,37.6,99,35C99,33.1,97.9,31.4,96.2,30.7z" fill="#2C3E50"/><rect fill="#2C3E50" height="4" width="22" x="38.2" y="24"/><rect fill="#2C3E50" height="4" width="22" x="68.2" y="24"/><path d="M36.2,30.7V19c0-1.1-0.9-2-2-2s-2,0.9-2,2v11.7c-1.6,0.8-2.8,2.4-2.8,4.3c0,2.6,2.1,4.8,4.8,4.8  S39,37.6,39,35C39,33.1,37.9,31.4,36.2,30.7z" fill="#2C3E50"/><path d="M73.4,106H17c-3.3,0-6-2.7-6-6V49h106v30.9c1.7,2.1,3,4.4,4,7V34c0-5.5-4.5-10-10-10H98v4h13  c3.3,0,6,2.7,6,6v11H11V34c0-3.3,2.7-6,6-6h13v-4H17c-5.5,0-10,4.5-10,10v66c0,5.5,4.5,10,10,10h58.5C74.7,108.7,74,107.4,73.4,106z  " fill="#2C3E50"/><path d="M97,76.3c10.5,0,19.1,8.2,19.6,18.8c0.5,10.8-7.9,20-18.7,20.5c-0.3,0-0.6,0-0.9,0  c-10.5,0-19.1-8.2-19.6-18.8c-0.5-10.8,7.9-20,18.7-20.5C96.4,76.3,96.7,76.3,97,76.3 M97,72.3c-0.4,0-0.7,0-1.1,0  C82.9,73,72.8,84,73.4,97.1c0.6,12.7,11,22.6,23.6,22.6c0.4,0,0.7,0,1.1,0c13.1-0.6,23.1-11.7,22.6-24.7  C120.1,82.2,109.6,72.3,97,72.3L97,72.3z" fill="#3B97D3"/><path d="M108.6,101L99,94.9l6.1-8.5c0.3-0.4,0.2-1.1-0.2-1.4s-1.1-0.2-1.4,0.2L97.2,94c-0.7-0.1-1.5,0.3-1.9,0.9  c-0.6,0.9-0.3,2.2,0.6,2.8l10.5,6.7c0.3,0.2,0.7,0.3,1.1,0.3c0.7,0,1.3-0.3,1.7-0.9C109.8,102.8,109.5,101.6,108.6,101z" fill="#3B97D3"/><circle cx="51.4" cy="61" fill="#2C3E50" r="3.3"/><circle cx="63.6" cy="61" fill="#2C3E50" r="3.3"/><circle cx="75.8" cy="61" fill="#2C3E50" r="3.3"/><circle cx="88" cy="61" fill="#2C3E50" r="3.3"/><circle cx="100.2" cy="61" fill="#2C3E50" r="3.3"/><circle cx="27" cy="72.1" fill="#2C3E50" r="3.3"/><circle cx="39.2" cy="72.1" fill="#2C3E50" r="3.3"/><circle cx="51.4" cy="72.1" fill="#2C3E50" r="3.3"/><circle cx="63.6" cy="72.1" fill="#2C3E50" r="3.3"/><circle cx="75.8" cy="72.1" fill="#2C3E50" r="3.3"/><circle cx="27" cy="82.9" fill="#2C3E50" r="3.3"/><circle cx="39.2" cy="82.9" fill="#2C3E50" r="3.3"/><circle cx="51.4" cy="82.9" fill="#2C3E50" r="3.3"/><circle cx="63.6" cy="82.9" fill="#2C3E50" r="3.3"/><circle cx="27" cy="93.8" fill="#2C3E50" r="3.3"/><circle cx="39.2" cy="93.8" fill="#2C3E50" r="3.3"/><circle cx="51.4" cy="93.8" fill="#2C3E50" r="3.3"/><path d="M103.4,71.1c-0.4-1.4-1.7-2.4-3.2-2.4c-1.2,0-2.2,0.6-2.8,1.6C99.5,70.4,101.5,70.7,103.4,71.1z" fill="#2C3E50"/><path d="M91.2,71c-0.5-1.3-1.7-2.3-3.1-2.3c-1.8,0-3.3,1.5-3.3,3.3c0,0.4,0.1,0.9,0.2,1.3C86.9,72.3,89,71.5,91.2,71  z" fill="#2C3E50"/><path d="M73.6,85.4c0.9-2,2.1-3.9,3.5-5.6c-0.4-0.2-0.8-0.2-1.3-0.2c-1.8,0-3.3,1.5-3.3,3.3  C72.5,83.9,72.9,84.8,73.6,85.4z" fill="#2C3E50"/></svg>